<?xml version="1.0" standalone="no"?>
<!DOCTYPE svg PUBLIC "-//W3C//DTD SVG 20010904//EN"
 "http://www.w3.org/TR/2001/REC-SVG-20010904/DTD/svg10.dtd">
<svg version="1.0" xmlns="http://www.w3.org/2000/svg"
 width="1047.000000pt" height="1047.000000pt" viewBox="0 0 1047.000000 1047.000000"
 preserveAspectRatio="xMidYMid meet">
<metadata>
Created by potrace 1.11, written by Peter Selinger 2001-2013
</metadata>
<g transform="translate(0.000000,1047.000000) scale(0.100000,-0.100000)"
fill="#000000" stroke="none">
<path d="M5162 10449 c-95 -30 -179 -84 -268 -173 -69 -69 -163 -193 -187
-246 -4 -8 -17 -31 -29 -50 -44 -73 -159 -354 -174 -425 -2 -11 -8 -31 -13
-45 -8 -22 -37 -134 -46 -179 -2 -9 -10 -50 -18 -91 -9 -41 -19 -95 -22 -120
-4 -24 -8 -47 -10 -50 -1 -3 -6 -36 -10 -73 -3 -37 -8 -76 -10 -86 -19 -97
-26 -569 -12 -770 8 -110 32 -319 41 -351 3 -8 7 -31 10 -50 3 -19 10 -60 16
-90 6 -30 13 -66 16 -80 3 -14 8 -34 11 -45 8 -25 11 -33 17 -66 25 -117 133
-398 201 -521 l35 -65 -67 -26 c-37 -15 -67 -26 -68 -24 -1 1 -16 49 -34 107
-63 201 -173 428 -309 640 -49 76 -216 307 -231 320 -3 3 -28 32 -56 65 -234
281 -556 573 -855 772 -280 187 -590 329 -810 373 -30 5 -66 13 -80 16 -49 11
-266 13 -310 3 -25 -6 -52 -12 -60 -14 -8 -2 -35 -11 -60 -21 -152 -60 -257
-189 -294 -360 -14 -68 -15 -271 -1 -339 76 -372 253 -725 558 -1118 154 -197
388 -442 563 -588 49 -41 95 -80 103 -87 64 -61 351 -258 486 -334 153 -87
409 -197 495 -215 17 -3 30 -8 30 -10 0 -3 -16 -37 -35 -77 -19 -40 -35 -78
-35 -85 0 -18 -14 -14 -137 48 -192 96 -437 177 -683 227 -65 12 -282 44 -345
50 -38 3 -81 8 -95 11 -46 9 -554 11 -645 2 -207 -19 -218 -20 -313 -35 -20
-3 -48 -7 -62 -9 -169 -25 -508 -116 -615 -165 -11 -5 -58 -25 -104 -45 -47
-20 -111 -52 -143 -71 -33 -19 -61 -34 -63 -34 -7 0 -95 -62 -129 -90 -184
-152 -279 -305 -285 -460 -8 -203 121 -402 362 -563 193 -128 514 -256 786
-312 9 -2 36 -8 61 -13 25 -6 63 -13 85 -17 22 -3 69 -10 105 -16 327 -52 807
-58 1130 -14 25 4 56 8 70 10 34 4 124 18 130 20 12 2 87 17 110 21 157 28
447 123 605 198 l112 53 17 -52 c9 -28 16 -55 16 -58 0 -4 -26 -14 -57 -23
-847 -239 -1858 -1216 -2154 -2084 -62 -179 -83 -292 -83 -440 0 -188 39 -300
141 -410 65 -70 161 -122 268 -144 68 -14 266 -15 325 -2 14 3 41 9 60 13 19
4 37 8 40 8 52 14 81 22 167 51 146 48 384 161 503 239 57 36 203 134 230 152
50 35 217 168 290 232 102 88 342 329 420 421 35 41 66 77 69 80 21 18 174
229 251 346 101 153 244 434 286 560 l27 81 82 -41 83 -41 -33 -65 c-84 -168
-173 -427 -211 -613 -2 -10 -5 -26 -8 -35 -3 -9 -7 -34 -10 -54 -3 -21 -10
-57 -15 -80 -5 -24 -12 -65 -15 -93 -4 -27 -9 -68 -12 -91 -26 -184 -35 -548
-21 -789 7 -117 9 -138 33 -310 18 -134 58 -334 84 -420 5 -16 17 -57 26 -90
10 -33 22 -64 26 -69 4 -6 8 -17 8 -26 0 -9 16 -56 36 -105 152 -378 355 -617
588 -694 66 -21 197 -23 261 -2 227 73 408 279 573 651 23 51 101 278 107 311
3 12 11 45 19 73 8 28 26 110 40 181 26 133 30 162 41 250 3 28 8 64 10 80 27
203 26 762 -1 912 -3 14 -6 44 -8 67 -6 69 -47 285 -76 408 -43 176 -123 403
-176 500 -8 15 -11 29 -6 32 14 9 104 38 106 34 1 -2 15 -39 31 -83 32 -92
151 -342 189 -398 14 -21 26 -40 26 -43 0 -22 256 -380 337 -471 15 -17 48
-55 73 -85 25 -29 110 -118 190 -198 129 -129 191 -186 277 -255 14 -11 39
-32 57 -48 31 -28 274 -203 307 -222 10 -5 60 -35 111 -66 253 -153 538 -266
752 -297 63 -9 270 -8 311 1 153 34 275 118 339 233 63 113 88 295 65 464 -55
391 -323 892 -719 1344 -46 52 -283 290 -340 341 -306 275 -685 521 -970 630
-41 16 -76 30 -78 30 -2 2 57 147 63 153 2 2 41 -13 87 -33 46 -20 92 -40 103
-45 55 -24 183 -65 305 -97 155 -41 140 -37 205 -48 28 -5 52 -10 55 -10 3 -1
28 -5 55 -10 28 -4 57 -9 65 -10 9 -2 40 -6 70 -10 30 -3 69 -8 85 -10 204
-26 746 -26 907 0 13 2 46 6 73 9 28 4 61 8 75 11 14 2 42 7 64 10 32 4 151
28 252 50 56 12 187 50 258 74 433 150 712 360 806 606 33 85 33 235 1 318
-87 224 -318 412 -686 560 -143 57 -390 129 -520 151 -16 2 -55 9 -85 15 -30
6 -73 12 -95 15 -22 3 -76 10 -120 15 -237 30 -721 33 -910 6 -16 -2 -68 -9
-115 -15 -106 -13 -137 -18 -225 -35 -144 -29 -248 -55 -375 -97 -105 -34
-115 -37 -248 -96 l-93 -41 -20 45 c-10 25 -19 49 -19 52 0 4 37 18 83 31 45
13 87 27 92 31 6 3 37 17 70 30 140 55 398 201 569 323 63 44 231 174 262 202
6 5 47 42 90 80 134 119 317 308 427 440 87 104 85 102 167 215 494 682 625
1330 325 1608 -110 102 -241 143 -439 137 -61 -2 -136 -9 -166 -15 -30 -6 -66
-14 -80 -16 -45 -9 -264 -85 -325 -113 -140 -65 -165 -78 -255 -130 -193 -110
-425 -276 -597 -426 -73 -64 -336 -324 -393 -390 -155 -177 -339 -426 -420
-570 -111 -196 -178 -339 -225 -480 -15 -44 -29 -83 -31 -87 -2 -3 -44 10 -92
30 l-87 36 64 130 c35 72 68 140 72 151 4 11 11 29 15 40 4 11 8 22 9 25 0 3
15 48 32 100 27 80 51 163 67 230 21 87 61 308 71 401 3 22 7 58 10 82 24 200
24 680 0 867 -2 19 -7 55 -10 80 -13 108 -19 147 -30 200 -3 14 -8 41 -11 60
-9 53 -62 267 -83 335 -28 89 -91 254 -114 300 -12 22 -21 42 -22 45 -1 5 -9
21 -57 107 -117 214 -277 365 -452 430 -66 24 -200 25 -274 2z"/>
</g>
</svg>
